<?xml version="1.0" encoding="iso-8859-1"?>
<!-- Generator: Adobe Illustrator 19.0.0, SVG Export Plug-In . SVG Version: 6.00 Build 0)  -->
<svg version="1.1" id="Layer_1" xmlns="http://www.w3.org/2000/svg" xmlns:xlink="http://www.w3.org/1999/xlink" x="0px" y="0px"
	 viewBox="0 0 512.001 512.001" style="enable-background:new 0 0 512.001 512.001;" xml:space="preserve">
<g>
	<path style="fill:#A67C52;" d="M240.277,495.18l-23.002-12.245V379.37c0-4.933-3.998-8.933-8.933-8.933
		c-4.935,0-8.933,4-8.933,8.933v103.564l-23.003,12.245c-4.355,2.318-6.005,7.728-3.688,12.083c1.607,3.018,4.696,4.737,7.893,4.737
		c1.415,0,2.853-0.338,4.19-1.049l23.54-12.531l23.539,12.531c4.357,2.32,9.764,0.667,12.083-3.688
		C246.282,502.907,244.631,497.498,240.277,495.18z"/>
	<path style="fill:#A67C52;" d="M339.492,495.18l-23.003-12.245V333.591c0-4.933-3.998-8.933-8.933-8.933s-8.933,4-8.933,8.933
		v149.342l-23.002,12.245c-4.355,2.318-6.005,7.728-3.688,12.083c2.317,4.353,7.728,6.005,12.083,3.688l23.539-12.531l23.54,12.531
		c1.338,0.712,2.774,1.049,4.19,1.049c3.197,0,6.286-1.72,7.893-4.737C345.498,502.907,343.848,497.498,339.492,495.18z"/>
</g>
<path style="fill:#FCC447;" d="M428.72,217.957c0,119.015-77.329,183.212-172.72,183.212S83.281,336.972,83.281,217.957
	S160.61,0,256.001,0S428.72,98.942,428.72,217.957z"/>
<path style="fill:#EFB643;" d="M310.474,383.011c-95.39,0-172.72-64.196-172.72-183.212c0-87.712,42.005-164.516,102.284-198.851
	C152.133,11.247,83.281,105.657,83.281,217.957c0,119.015,77.33,183.212,172.72,183.212c31.513,0,61.053-7.012,86.488-20.688
	C332.113,382.156,321.414,383.011,310.474,383.011z"/>
<polygon style="fill:#FC675B;" points="256.001,242.154 213.648,195.802 256.001,158.32 298.353,195.802 "/>
<polygon style="fill:#E8564F;" points="256.001,200.237 213.648,195.802 256.001,158.32 298.353,195.802 "/>
<g>
	<circle style="fill:#4D4D4D;" cx="337.751" cy="173.693" r="21.438"/>
	<circle style="fill:#4D4D4D;" cx="174.241" cy="173.693" r="21.438"/>
</g>
<g>
	<path style="fill:#E0A338;" d="M172.356,355.023c0,8.754-0.953,17.27-2.751,25.501c-46.749-25.084-79.635-72.691-85.411-140.701
		C134.98,253.52,172.356,299.912,172.356,355.023z"/>
	<path style="fill:#E0A338;" d="M339.646,355.023c0,8.754,0.953,17.27,2.751,25.501c46.749-25.084,79.635-72.691,85.411-140.701
		C377.022,253.52,339.646,299.912,339.646,355.023z"/>
</g>
<g>
</g>
<g>
</g>
<g>
</g>
<g>
</g>
<g>
</g>
<g>
</g>
<g>
</g>
<g>
</g>
<g>
</g>
<g>
</g>
<g>
</g>
<g>
</g>
<g>
</g>
<g>
</g>
<g>
</g>
</svg>
